<svg xmlns="http://www.w3.org/2000/svg" width="1200" height="620" viewBox="0 0 1200 620" role="img" aria-labelledby="title desc">
<title id="title">Daksh Vasani — Data Science and AI Portfolio preview</title>
<desc id="desc">Dark navy portfolio design with cyan and violet glow, animated-design inspired orb, profile introduction, technical skill cards and project tiles.</desc>
<defs>
  <linearGradient id="bg" x1="0" y1="0" x2="1" y2="1"><stop stop-color="#080b16"/><stop offset="1" stop-color="#11172a"/></linearGradient>
  <linearGradient id="cyan" x1="0" y1="0" x2="1" y2="1"><stop stop-color="#72e7e9"/><stop offset="1" stop-color="#8fbaff"/></linearGradient>
  <linearGradient id="gradText" x1="0" y1="0" x2="1" y2="0"><stop stop-color="#edfaff"/><stop offset=".42" stop-color="#71dbe9"/><stop offset=".76" stop-color="#8da4ff"/><stop offset="1" stop-color="#c6a9ff"/></linearGradient>
  <radialGradient id="orb"><stop stop-color="#164661"/><stop offset=".65" stop-color="#10182d"/><stop offset="1" stop-color="#09101e"/></radialGradient>
  <radialGradient id="glow"><stop stop-color="#30c9e9" stop-opacity=".3"/><stop offset="1" stop-color="#30c9e9" stop-opacity="0"/></radialGradient>
  <pattern id="grid" width="32" height="32" patternUnits="userSpaceOnUse"><path d="M32 0H0V32" fill="none" stroke="#8eb5e6" stroke-opacity=".09" stroke-width="1"/></pattern>
  <filter id="blur"><feGaussianBlur stdDeviation="24"/></filter>
  <filter id="shadow"><feDropShadow dx="0" dy="12" stdDeviation="16" flood-color="#000" flood-opacity=".28"/></filter>
</defs>
<rect width="1200" height="620" rx="22" fill="url(#bg)"/>
<circle cx="160" cy="90" r="220" fill="#147ad7" opacity=".12" filter="url(#blur)"/>
<circle cx="1030" cy="240" r="250" fill="#6945ad" opacity=".13" filter="url(#blur)"/>
<rect x="1" y="1" width="1198" height="618" rx="22" fill="url(#grid)" stroke="#27334b"/>
<!-- navbar -->
<rect x="34" y="27" width="40" height="40" rx="12" fill="#101d30" stroke="#59e1ec" stroke-opacity=".65"/>
<text x="45" y="54" font-family="Arial,sans-serif" font-size="24" font-weight="800" fill="#edf2ff">D<tspan fill="#59e1ec">.</tspan></text>
<text x="88" y="44" font-family="Arial,sans-serif" font-size="13" font-weight="800" letter-spacing="1.7" fill="#edf2ff">DAKSH VASANI</text>
<text x="88" y="59" font-family="monospace" font-size="8.5" letter-spacing="2" fill="#8291ad">DATA SCIENCE / AI</text>
<g font-family="Arial,sans-serif" font-size="11" font-weight="700" fill="#9aa7c2"><text x="660" y="51">Home</text><text x="716" y="51">About</text><text x="776" y="51">Toolkit</text><text x="843" y="51">Projects</text><text x="918" y="51">Contact</text></g>
<rect x="1018" y="32" width="146" height="34" rx="9" fill="#111d30" stroke="#2b3c55"/>
<text x="1042" y="53" font-family="Arial,sans-serif" font-size="11" font-weight="700" fill="#e8f1ff">Open Portfolio ↗</text>
<path d="M28 84H1172" stroke="#849cc2" stroke-opacity=".16"/>
<!-- hero left -->
<rect x="43" y="123" width="246" height="27" rx="13.5" fill="#10251f" stroke="#83edbd" stroke-opacity=".24"/>
<circle cx="59" cy="136.5" r="4" fill="#83edbd"/><text x="72" y="140" font-family="monospace" font-size="9" letter-spacing=".6" fill="#a1e9c5">OPEN TO LEARNING &amp; COLLABORATION</text>
<text x="44" y="180" font-family="monospace" font-size="10" letter-spacing="2" fill="#59e1ec">HELLO, WORLD — I'M</text>
<text x="40" y="260" font-family="Arial,sans-serif" font-size="76" letter-spacing="-5" font-weight="800" fill="#edf2ff">Daksh</text>
<text x="40" y="339" font-family="Arial,sans-serif" font-size="76" letter-spacing="-5" font-weight="800" fill="url(#gradText)">Vasani<tspan fill="#59e1ec">.</tspan></text>
<text x="44" y="378" font-family="Arial,sans-serif" font-size="15" fill="#9aa7c2">I explore <tspan font-weight="800" fill="#edf2ff">Machine Learning</tspan><tspan fill="#59e1ec"> ▍</tspan></text>
<text x="44" y="413" font-family="Arial,sans-serif" font-size="12.5" fill="#9aa7c2">M.Sc. Data Science student turning curious questions</text>
<text x="44" y="433" font-family="Arial,sans-serif" font-size="12.5" fill="#9aa7c2">into data-driven ideas, ML projects and intelligent tools.</text>
<rect x="44" y="461" width="154" height="43" rx="9" fill="url(#cyan)"/><text x="62" y="487" font-family="Arial,sans-serif" font-size="12" font-weight="800" fill="#07131b">Explore my work ↘</text>
<rect x="210" y="461" width="136" height="43" rx="9" fill="#101627" stroke="#34435d"/><text x="230" y="487" font-family="Arial,sans-serif" font-size="12" font-weight="700" fill="#edf2ff">Let's connect ↗</text>
<g fill="#9aa7c2" font-family="Arial,sans-serif" font-size="10"><text x="44" y="544">GitHub</text><text x="101" y="544">LinkedIn</text><text x="170" y="544">Instagram</text><text x="250" y="544" fill="#64718c">• Ahmedabad, India</text></g>
<!-- hero right visual -->
<rect x="620" y="105" width="530" height="420" rx="22" fill="url(#grid)" opacity=".85"/>
<ellipse cx="890" cy="310" rx="250" ry="185" fill="url(#glow)"/>
<ellipse cx="891" cy="311" rx="199" ry="100" transform="rotate(-32 891 311)" fill="none" stroke="#7bb6e3" stroke-opacity=".34"/>
<ellipse cx="891" cy="311" rx="160" ry="160" fill="none" stroke="#a88bff" stroke-opacity=".28" stroke-dasharray="4 7"/>
<circle cx="770" cy="213" r="5" fill="#59e1ec"/><circle cx="1012" cy="383" r="4" fill="#a88bff"/><circle cx="1040" cy="250" r="4" fill="#a88bff"/>
<circle cx="891" cy="311" r="111" fill="url(#glow)"/>
<circle cx="891" cy="311" r="88" fill="url(#orb)" stroke="#59e1ec" stroke-opacity=".65"/>
<circle cx="891" cy="311" r="73" fill="none" stroke="#59e1ec" stroke-opacity=".22"/>
<circle cx="891" cy="311" r="95" fill="none" stroke="#a88bff" stroke-opacity=".18"/>
<text x="855" y="333" font-family="Arial,sans-serif" font-size="69" font-weight="800" letter-spacing="-8" fill="#edf2ff">D<tspan fill="#59e1ec">.</tspan></text>
<!-- floating skill chips -->
<g filter="url(#shadow)"><rect x="637" y="167" width="157" height="63" rx="12" fill="#101a2d" stroke="#45536e" stroke-opacity=".75"/><rect x="649" y="180" width="35" height="35" rx="9" fill="#173345" stroke="#59e1ec" stroke-opacity=".22"/><text x="656" y="202" font-family="monospace" font-size="11" font-weight="700" fill="#7de4ef">Py</text><text x="694" y="193" font-family="Arial,sans-serif" font-size="11" font-weight="700" fill="#edf2ff">Python</text><text x="694" y="208" font-family="Arial,sans-serif" font-size="9" fill="#95a5c1">Data · Models</text></g>
<g filter="url(#shadow)"><rect x="994" y="279" width="170" height="64" rx="12" fill="#101a2d" stroke="#45536e" stroke-opacity=".75"/><rect x="1006" y="293" width="35" height="35" rx="9" fill="#28203f"/><path d="M1023 300l9 4v7c0 7-9 11-9 11s-9-4-9-11v-7z" fill="none" stroke="#bba4ff" stroke-width="1.5"/><text x="1048" y="306" font-family="Arial,sans-serif" font-size="10" font-weight="700" fill="#edf2ff">Machine Learning</text><text x="1048" y="321" font-family="Arial,sans-serif" font-size="9" fill="#95a5c1">Patterns → Insights</text></g>
<g filter="url(#shadow)"><rect x="663" y="405" width="167" height="64" rx="12" fill="#101a2d" stroke="#45536e" stroke-opacity=".75"/><rect x="675" y="419" width="35" height="35" rx="9" fill="#18333b"/><path d="M682 445l6-8 5 4 8-12" fill="none" stroke="#59e1ec" stroke-width="2" stroke-linecap="round" stroke-linejoin="round"/><text x="718" y="432" font-family="Arial,sans-serif" font-size="10" font-weight="700" fill="#edf2ff">Data Analytics</text><text x="718" y="447" font-family="Arial,sans-serif" font-size="9" fill="#95a5c1">Find the signal</text></g>
<text x="830" y="506" font-family="monospace" font-size="9" letter-spacing="1.6" fill="#8a9ab8">● CURIOUS BY DESIGN</text>
<!-- bottom ribbon -->
<path d="M35 575H1165" stroke="#849cc2" stroke-opacity=".17"/>
<text x="43" y="597" font-family="monospace" font-size="9" letter-spacing="1.7" fill="#7788a8">DATA SCIENCE  ✳  MACHINE LEARNING  ✳  PYTHON  ✳  AI SYSTEMS  ✳  DATA STORYTELLING</text>
</svg>