<svg xmlns="http://www.w3.org/2000/svg" width="1200" height="680" viewBox="0 0 1200 680" role="img" aria-labelledby="title desc">
<title id="title">Daksh Vasani — tools and technology stack</title><desc id="desc">Technology groups covering Python and data science, machine learning and visualization, and application development and collaboration.</desc>
<defs><linearGradient id="bg" x1="0" y1="0" x2="1" y2="1"><stop stop-color="#0a1020"/><stop offset="1" stop-color="#141d36"/></linearGradient><linearGradient id="c1"><stop stop-color="#57eaff"/><stop offset="1" stop-color="#6e9cff"/></linearGradient><linearGradient id="c2"><stop stop-color="#b79aff"/><stop offset="1" stop-color="#f19bd8"/></linearGradient><linearGradient id="c3"><stop stop-color="#68f0c8"/><stop offset="1" stop-color="#87baff"/></linearGradient></defs>
<style>.eyebrow{font:600 12px 'Segoe UI',Arial,sans-serif;letter-spacing:2px;fill:#9dafd5}.title{font:700 31px 'Segoe UI',Arial,sans-serif;fill:#f4f7ff}.sub{font:400 15px 'Segoe UI',Arial,sans-serif;fill:#aebcdb}.group{font:700 18px 'Segoe UI',Arial,sans-serif;fill:#f2f6ff}.note{font:400 13px 'Segoe UI',Arial,sans-serif;fill:#9eafd0}.chip{font:600 14px 'Segoe UI',Arial,sans-serif;fill:#dfeaff}.tag{font:600 10px 'Segoe UI',Arial,sans-serif;letter-spacing:1.6px;fill:#a4bbdf}</style>
<rect width="1200" height="680" rx="26" fill="url(#bg)"/><circle cx="1100" cy="100" r="200" fill="#6b6fff" opacity=".08"/><text x="62" y="69" class="eyebrow">TOOLS I USE TO LEARN AND SHIP</text><text x="62" y="115" class="title">My practical toolkit</text><text x="64" y="148" class="sub">A growing stack for analysis, modeling, visualization and app building.</text>
<g><rect x="62" y="183" width="337" height="420" rx="22" fill="#101a30" stroke="#3d668d"/><rect x="62" y="183" width="337" height="5" rx="2.5" fill="url(#c1)"/><text x="88" y="222" class="tag">01 / DATA</text><text x="88" y="253" class="group">Python &amp; analytics</text><text x="88" y="278" class="note">Working with data from raw to ready.</text>
<g><rect x="86" y="304" width="129" height="42" rx="12" fill="#172c46" stroke="#375b7c"/><text x="150" y="330" text-anchor="middle" class="chip">Python</text><rect x="225" y="304" width="147" height="42" rx="12" fill="#172c46" stroke="#375b7c"/><text x="298" y="330" text-anchor="middle" class="chip">Pandas</text><rect x="86" y="356" width="129" height="42" rx="12" fill="#172c46" stroke="#375b7c"/><text x="150" y="382" text-anchor="middle" class="chip">NumPy</text><rect x="225" y="356" width="147" height="42" rx="12" fill="#172c46" stroke="#375b7c"/><text x="298" y="382" text-anchor="middle" class="chip">R</text><rect x="86" y="408" width="129" height="42" rx="12" fill="#172c46" stroke="#375b7c"/><text x="150" y="434" text-anchor="middle" class="chip">SQL</text><rect x="225" y="408" width="147" height="42" rx="12" fill="#172c46" stroke="#375b7c"/><text x="298" y="434" text-anchor="middle" class="chip">MySQL</text></g><path d="M88 477H372" stroke="#273b5b"/><text x="88" y="508" class="note">Clean · transform · explore</text><text x="88" y="533" class="note">Structured data · practical queries</text><circle cx="89" cy="568" r="4" fill="#64e7ff"/><text x="103" y="573" class="tag">DATA FOUNDATIONS</text></g>
<g><rect x="431" y="183" width="337" height="420" rx="22" fill="#101a30" stroke="#4a548d"/><rect x="431" y="183" width="337" height="5" rx="2.5" fill="url(#c2)"/><text x="457" y="222" class="tag">02 / INTELLIGENCE</text><text x="457" y="253" class="group">ML &amp; visualization</text><text x="457" y="278" class="note">Find patterns, evaluate, communicate.</text>
<g><rect x="455" y="304" width="135" height="42" rx="12" fill="#242344" stroke="#57518c"/><text x="522" y="330" text-anchor="middle" class="chip">Scikit-learn</text><rect x="600" y="304" width="143" height="42" rx="12" fill="#242344" stroke="#57518c"/><text x="671" y="330" text-anchor="middle" class="chip">Matplotlib</text><rect x="455" y="356" width="135" height="42" rx="12" fill="#242344" stroke="#57518c"/><text x="522" y="382" text-anchor="middle" class="chip">Seaborn</text><rect x="600" y="356" width="143" height="42" rx="12" fill="#242344" stroke="#57518c"/><text x="671" y="382" text-anchor="middle" class="chip">Plotly</text><rect x="455" y="408" width="288" height="42" rx="12" fill="#242344" stroke="#57518c"/><text x="599" y="434" text-anchor="middle" class="chip">Machine Learning</text></g><path d="M457 477H741" stroke="#2f315a"/><text x="457" y="508" class="note">Feature engineering · evaluation</text><text x="457" y="533" class="note">Charts · dashboards · predictions</text><circle cx="458" cy="568" r="4" fill="#c4a0ff"/><text x="472" y="573" class="tag">MODEL TO INSIGHT</text></g>
<g><rect x="800" y="183" width="337" height="420" rx="22" fill="#101a30" stroke="#3d7a78"/><rect x="800" y="183" width="337" height="5" rx="2.5" fill="url(#c3)"/><text x="826" y="222" class="tag">03 / BUILD</text><text x="826" y="253" class="group">Apps &amp; workflow</text><text x="826" y="278" class="note">Turn ideas into usable projects.</text>
<g><rect x="824" y="304" width="129" height="42" rx="12" fill="#163035" stroke="#326b6a"/><text x="888" y="330" text-anchor="middle" class="chip">Django</text><rect x="963" y="304" width="150" height="42" rx="12" fill="#163035" stroke="#326b6a"/><text x="1038" y="330" text-anchor="middle" class="chip">Streamlit</text><rect x="824" y="356" width="129" height="42" rx="12" fill="#163035" stroke="#326b6a"/><text x="888" y="382" text-anchor="middle" class="chip">HTML / CSS</text><rect x="963" y="356" width="150" height="42" rx="12" fill="#163035" stroke="#326b6a"/><text x="1038" y="382" text-anchor="middle" class="chip">JavaScript</text><rect x="824" y="408" width="129" height="42" rx="12" fill="#163035" stroke="#326b6a"/><text x="888" y="434" text-anchor="middle" class="chip">Git</text><rect x="963" y="408" width="150" height="42" rx="12" fill="#163035" stroke="#326b6a"/><text x="1038" y="434" text-anchor="middle" class="chip">GitHub</text></g><path d="M826 477H1110" stroke="#254e52"/><text x="826" y="508" class="note">APIs · backend · prototypes</text><text x="826" y="533" class="note">Version control · iteration</text><circle cx="827" cy="568" r="4" fill="#70f2c9"/><text x="841" y="573" class="tag">IDEA TO APPLICATION</text></g>
<text x="1136" y="642" text-anchor="end" class="eyebrow">ALWAYS LEARNING, ALWAYS BUILDING</text></svg>
